<svg width="512" height="512" viewBox="0 0 512 512" fill="none" xmlns="http://www.w3.org/2000/svg">
    <path fill-rule="evenodd" clip-rule="evenodd"
        d="M480.146 288.179C488.019 277.927 496 267.535 496 256C496 244.465 488.019 234.073 480.146 223.821C474.041 215.871 468.001 208.006 465.8 199.76C463.49 191.09 464.803 180.904 466.11 170.763C467.745 158.073 469.371 145.453 463.88 135.96C458.272 126.264 446.375 121.334 434.511 116.418C425.133 112.533 415.776 108.656 409.56 102.44C403.344 96.2243 399.467 86.8669 395.582 77.4894C390.666 65.6248 385.736 53.7277 376.04 48.12C366.547 42.6285 353.927 44.2549 341.237 45.8902C331.096 47.1971 320.91 48.5098 312.24 46.2C303.994 43.9986 296.129 37.9588 288.179 31.8536C277.927 23.9811 267.535 16 256 16C244.465 16 234.073 23.9811 223.821 31.8536C215.871 37.9588 208.006 43.9986 199.76 46.2C191.09 48.5098 180.904 47.1971 170.763 45.8902C158.073 44.2549 145.453 42.6285 135.96 48.12C126.264 53.7277 121.334 65.6247 116.418 77.4893C112.533 86.8669 108.656 96.2242 102.44 102.44C96.2242 108.656 86.8669 112.533 77.4893 116.418C65.6247 121.334 53.7277 126.264 48.12 135.96C42.6285 145.453 44.2549 158.073 45.8902 170.763C47.1971 180.904 48.5098 191.09 46.2 199.76C43.9986 208.006 37.9588 215.871 31.8536 223.821C23.9811 234.073 16 244.465 16 256C16 267.535 23.9811 277.927 31.8536 288.179C37.9588 296.129 43.9986 303.994 46.2 312.24C48.5098 320.91 47.1971 331.096 45.8902 341.237C44.2549 353.927 42.6285 366.547 48.12 376.04C53.7277 385.736 65.6248 390.666 77.4894 395.582C86.8669 399.467 96.2243 403.344 102.44 409.56C108.656 415.776 112.533 425.133 116.418 434.511C121.334 446.375 126.264 458.272 135.96 463.88C145.453 469.371 158.073 467.745 170.763 466.11C180.904 464.803 191.09 463.49 199.76 465.8C208.006 468.001 215.871 474.041 223.821 480.146C234.073 488.019 244.465 496 256 496C267.535 496 277.927 488.019 288.179 480.146C296.129 474.041 303.994 468.001 312.24 465.8C320.91 463.49 331.096 464.803 341.237 466.11C353.927 467.745 366.547 469.371 376.04 463.88C385.736 458.272 390.666 446.375 395.582 434.511C399.467 425.133 403.344 415.776 409.56 409.56C415.776 403.344 425.133 399.467 434.511 395.582C446.375 390.666 458.272 385.736 463.88 376.04C469.371 366.547 467.745 353.927 466.11 341.237C464.803 331.096 463.49 320.91 465.8 312.24C468.001 303.994 474.041 296.129 480.146 288.179ZM234 275.84L325.36 184.48C335.64 174.2 352.28 174.2 362.56 184.48C372.84 194.76 372.84 211.44 362.56 221.72L252.08 332.2C242.08 342.2 225.84 342.2 215.84 332.2L149.4 265.76C139.12 255.48 139.12 238.8 149.4 228.52C159.68 218.24 176.36 218.24 186.64 228.52L234 275.84Z"
        fill="currentColor" />
</svg>